<svg class="main-svg" xmlns="http://www.w3.org/2000/svg" xmlns:xlink="http://www.w3.org/1999/xlink" width="700" height="500" style="" viewBox="0 0 700 500"><rect x="0" y="0" width="700" height="500" style="fill: rgb(255, 255, 255); fill-opacity: 1;"/><defs id="defs-b85293"><g class="clips"><clipPath id="clipb85293xyplot" class="plotclip"><rect width="540" height="320"/></clipPath><clipPath class="axesclip" id="clipb85293x"><rect x="80" y="0" width="540" height="500"/></clipPath><clipPath class="axesclip" id="clipb85293y"><rect x="0" y="100" width="700" height="320"/></clipPath><clipPath class="axesclip" id="clipb85293xy"><rect x="80" y="100" width="540" height="320"/></clipPath></g><g class="gradients"/><g class="patterns"/></defs><g class="bglayer"/><g class="layer-below"><g class="imagelayer"/><g class="shapelayer"/></g><g class="cartesianlayer"><g class="subplot xy"><g class="layer-subplot"><g class="shapelayer"/><g class="imagelayer"/></g><g class="minor-gridlayer"><g class="x"/><g class="y"/></g><g class="gridlayer"><g class="x"/><g class="y"><path class="ygrid crisp" transform="translate(0,379.51)" d="M80,0h540" style="stroke: rgb(238, 238, 238); stroke-opacity: 1; stroke-width: 1px;"/><path class="ygrid crisp" transform="translate(0,339.01)" d="M80,0h540" style="stroke: rgb(238, 238, 238); stroke-opacity: 1; stroke-width: 1px;"/><path class="ygrid crisp" transform="translate(0,298.52)" d="M80,0h540" style="stroke: rgb(238, 238, 238); stroke-opacity: 1; stroke-width: 1px;"/><path class="ygrid crisp" transform="translate(0,258.02)" d="M80,0h540" style="stroke: rgb(238, 238, 238); stroke-opacity: 1; stroke-width: 1px;"/><path class="ygrid crisp" transform="translate(0,217.53)" d="M80,0h540" style="stroke: rgb(238, 238, 238); stroke-opacity: 1; stroke-width: 1px;"/><path class="ygrid crisp" transform="translate(0,177.03)" d="M80,0h540" style="stroke: rgb(238, 238, 238); stroke-opacity: 1; stroke-width: 1px;"/><path class="ygrid crisp" transform="translate(0,136.54)" d="M80,0h540" style="stroke: rgb(238, 238, 238); stroke-opacity: 1; stroke-width: 1px;"/></g></g><g class="zerolinelayer"><path class="yzl zl crisp" transform="translate(0,420)" d="M80,0h540" style="stroke: rgb(68, 68, 68); stroke-opacity: 1; stroke-width: 1px;"/></g><path class="xlines-below"/><path class="ylines-below"/><g class="overlines-below"/><g class="xaxislayer-below"/><g class="yaxislayer-below"/><g class="overaxes-below"/><g class="plot" transform="translate(80,100)" clip-path="url(#clipb85293xyplot)"><g class="barlayer mlayer"><g class="trace bars" style="opacity: 1;"><g class="points"><g class="point"><path d="M5.4,320V33.06H48.6V320Z" style="vector-effect: non-scaling-stroke; opacity: 1; stroke-width: 0px; fill: rgb(0, 188, 255); fill-opacity: 1;"/></g><g class="point"><path d="M59.4,320V53.5H102.6V320Z" style="vector-effect: non-scaling-stroke; opacity: 1; stroke-width: 0px; fill: rgb(0, 188, 255); fill-opacity: 1;"/></g><g class="point"><path d="M113.4,320V54.1H156.6V320Z" style="vector-effect: non-scaling-stroke; opacity: 1; stroke-width: 0px; fill: rgb(0, 188, 255); fill-opacity: 1;"/></g><g class="point"><path d="M167.4,320V73.91H210.6V320Z" style="vector-effect: non-scaling-stroke; opacity: 1; stroke-width: 0px; fill: rgb(0, 188, 255); fill-opacity: 1;"/></g><g class="point"><path d="M221.4,320V95.05H264.6V320Z" style="vector-effect: non-scaling-stroke; opacity: 1; stroke-width: 0px; fill: rgb(0, 188, 255); fill-opacity: 1;"/></g><g class="point"><path d="M275.4,320V71.37H318.6V320Z" style="vector-effect: non-scaling-stroke; opacity: 1; stroke-width: 0px; fill: rgb(0, 188, 255); fill-opacity: 1;"/></g><g class="point"><path d="M329.4,320V90.85H372.6V320Z" style="vector-effect: non-scaling-stroke; opacity: 1; stroke-width: 0px; fill: rgb(0, 188, 255); fill-opacity: 1;"/></g><g class="point"><path d="M383.4,320V105.55H426.6V320Z" style="vector-effect: non-scaling-stroke; opacity: 1; stroke-width: 0px; fill: rgb(0, 188, 255); fill-opacity: 1;"/></g><g class="point"><path d="M437.4,320V128.24H480.6V320Z" style="vector-effect: non-scaling-stroke; opacity: 1; stroke-width: 0px; fill: rgb(0, 188, 255); fill-opacity: 1;"/></g><g class="point"><path d="M491.4,320V111.8H534.6V320Z" style="vector-effect: non-scaling-stroke; opacity: 1; stroke-width: 0px; fill: rgb(0, 188, 255); fill-opacity: 1;"/></g></g><g class="errorbar"><path class="yerror" d="M23,16h8m-4,0V50.12m-4,0h8" style="vector-effect: non-scaling-stroke; stroke-width: 2px; stroke: rgb(68, 68, 68); stroke-opacity: 1;"/></g><g class="errorbar"><path class="yerror" d="M77,38.79h8m-4,0V68.2m-4,0h8" style="vector-effect: non-scaling-stroke; stroke-width: 2px; stroke: rgb(68, 68, 68); stroke-opacity: 1;"/></g><g class="errorbar"><path class="yerror" d="M131,35.07h8m-4,0V73.14m-4,0h8" style="vector-effect: non-scaling-stroke; stroke-width: 2px; stroke: rgb(68, 68, 68); stroke-opacity: 1;"/></g><g class="errorbar"><path class="yerror" d="M185,64.15h8m-4,0V83.67m-4,0h8" style="vector-effect: non-scaling-stroke; stroke-width: 2px; stroke: rgb(68, 68, 68); stroke-opacity: 1;"/></g><g class="errorbar"><path class="yerror" d="M239,56.7h8m-4,0V133.41m-4,0h8" style="vector-effect: non-scaling-stroke; stroke-width: 2px; stroke: rgb(68, 68, 68); stroke-opacity: 1;"/></g><g class="errorbar"><path class="yerror" d="M293,61.76h8m-4,0V80.97m-4,0h8" style="vector-effect: non-scaling-stroke; stroke-width: 2px; stroke: rgb(68, 68, 68); stroke-opacity: 1;"/></g><g class="errorbar"><path class="yerror" d="M347,83.26h8m-4,0V98.43m-4,0h8" style="vector-effect: non-scaling-stroke; stroke-width: 2px; stroke: rgb(68, 68, 68); stroke-opacity: 1;"/></g><g class="errorbar"><path class="yerror" d="M401,86.57h8m-4,0V124.53m-4,0h8" style="vector-effect: non-scaling-stroke; stroke-width: 2px; stroke: rgb(68, 68, 68); stroke-opacity: 1;"/></g><g class="errorbar"><path class="yerror" d="M455,105.94h8m-4,0V150.53m-4,0h8" style="vector-effect: non-scaling-stroke; stroke-width: 2px; stroke: rgb(68, 68, 68); stroke-opacity: 1;"/></g><g class="errorbar"><path class="yerror" d="M509,111.8h8m-4,0V111.8m-4,0h8" style="vector-effect: non-scaling-stroke; stroke-width: 2px; stroke: rgb(68, 68, 68); stroke-opacity: 1;"/></g></g></g></g><g class="overplot"/><path class="xlines-above crisp" d="M0,0" style="fill: none;"/><path class="ylines-above crisp" d="M0,0" style="fill: none;"/><g class="overlines-above"/><g class="xaxislayer-above"><g class="xtick"><text text-anchor="start" x="0" y="433" transform="translate(107,0) rotate(30,0,427)" style="font-family: Arial; font-size: 12px; fill: rgb(16, 56, 79); fill-opacity: 1; white-space: pre; opacity: 1;">Pooled Training</text></g><g class="xtick"><text text-anchor="start" x="0" y="433" transform="translate(161,0) rotate(30,0,427)" style="font-family: Arial; font-size: 12px; fill: rgb(16, 56, 79); fill-opacity: 1; white-space: pre; opacity: 1;">Local 0</text></g><g class="xtick"><text text-anchor="start" x="0" y="433" transform="translate(215,0) rotate(30,0,427)" style="font-family: Arial; font-size: 12px; fill: rgb(16, 56, 79); fill-opacity: 1; white-space: pre; opacity: 1;">Local 1</text></g><g class="xtick"><text text-anchor="start" x="0" y="433" transform="translate(269,0) rotate(30,0,427)" style="font-family: Arial; font-size: 12px; fill: rgb(16, 56, 79); fill-opacity: 1; white-space: pre; opacity: 1;">FedAvg100</text></g><g class="xtick"><text text-anchor="start" x="0" y="433" transform="translate(323,0) rotate(30,0,427)" style="font-family: Arial; font-size: 12px; fill: rgb(16, 56, 79); fill-opacity: 1; white-space: pre; opacity: 1;">Scaffold100</text></g><g class="xtick"><text text-anchor="start" x="0" y="433" transform="translate(377,0) rotate(30,0,427)" style="font-family: Arial; font-size: 12px; fill: rgb(16, 56, 79); fill-opacity: 1; white-space: pre; opacity: 1;">FedProx100</text></g><g class="xtick"><text text-anchor="start" x="0" y="433" transform="translate(431,0) rotate(30,0,427)" style="font-family: Arial; font-size: 12px; fill: rgb(16, 56, 79); fill-opacity: 1; white-space: pre; opacity: 1;">Cyclic100</text></g><g class="xtick"><text text-anchor="start" x="0" y="433" transform="translate(485,0) rotate(30,0,427)" style="font-family: Arial; font-size: 12px; fill: rgb(16, 56, 79); fill-opacity: 1; white-space: pre; opacity: 1;">FedAdagrad100</text></g><g class="xtick"><text text-anchor="start" x="0" y="433" transform="translate(539,0) rotate(30,0,427)" style="font-family: Arial; font-size: 12px; fill: rgb(16, 56, 79); fill-opacity: 1; white-space: pre; opacity: 1;">FedYogi100</text></g><g class="xtick"><text text-anchor="start" x="0" y="433" transform="translate(593,0) rotate(30,0,427)" style="font-family: Arial; font-size: 12px; fill: rgb(16, 56, 79); fill-opacity: 1; white-space: pre; opacity: 1;">FedAdam100</text></g></g><g class="yaxislayer-above"><g class="ytick"><text text-anchor="end" x="79" y="4.199999999999999" transform="translate(0,420)" style="font-family: Arial; font-size: 12px; fill: rgb(16, 56, 79); fill-opacity: 1; white-space: pre; opacity: 1;">0</text></g><g class="ytick"><text text-anchor="end" x="79" y="4.199999999999999" style="font-family: Arial; font-size: 12px; fill: rgb(16, 56, 79); fill-opacity: 1; white-space: pre; opacity: 1;" transform="translate(0,379.51)">0.1</text></g><g class="ytick"><text text-anchor="end" x="79" y="4.199999999999999" style="font-family: Arial; font-size: 12px; fill: rgb(16, 56, 79); fill-opacity: 1; white-space: pre; opacity: 1;" transform="translate(0,339.01)">0.2</text></g><g class="ytick"><text text-anchor="end" x="79" y="4.199999999999999" style="font-family: Arial; font-size: 12px; fill: rgb(16, 56, 79); fill-opacity: 1; white-space: pre; opacity: 1;" transform="translate(0,298.52)">0.3</text></g><g class="ytick"><text text-anchor="end" x="79" y="4.199999999999999" style="font-family: Arial; font-size: 12px; fill: rgb(16, 56, 79); fill-opacity: 1; white-space: pre; opacity: 1;" transform="translate(0,258.02)">0.4</text></g><g class="ytick"><text text-anchor="end" x="79" y="4.199999999999999" style="font-family: Arial; font-size: 12px; fill: rgb(16, 56, 79); fill-opacity: 1; white-space: pre; opacity: 1;" transform="translate(0,217.53)">0.5</text></g><g class="ytick"><text text-anchor="end" x="79" y="4.199999999999999" style="font-family: Arial; font-size: 12px; fill: rgb(16, 56, 79); fill-opacity: 1; white-space: pre; opacity: 1;" transform="translate(0,177.03)">0.6</text></g><g class="ytick"><text text-anchor="end" x="79" y="4.199999999999999" style="font-family: Arial; font-size: 12px; fill: rgb(16, 56, 79); fill-opacity: 1; white-space: pre; opacity: 1;" transform="translate(0,136.54)">0.7</text></g></g><g class="overaxes-above"/></g></g><g class="polarlayer"/><g class="smithlayer"/><g class="ternarylayer"/><g class="geolayer"/><g class="funnelarealayer"/><g class="pielayer"/><g class="iciclelayer"/><g class="treemaplayer"/><g class="sunburstlayer"/><g class="glimages"/><defs id="topdefs-b85293"><g class="clips"/></defs><g class="layer-above"><g class="imagelayer"/><g class="shapelayer"/></g><g class="infolayer"><g class="g-gtitle"><text class="gtitle" x="350" y="50" text-anchor="middle" dy="0em" style="font-family: Arial; font-size: 17px; fill: rgb(16, 56, 79); opacity: 1; font-weight: normal; white-space: pre;">FLamby reproducibility - Benchmark results on Fed-Camelyon16</text></g><g class="g-xtitle" transform="translate(0,10.6455078125)"><text class="xtitle" x="350" y="472" text-anchor="middle" style="font-family: Arial; font-size: 14px; fill: rgb(16, 56, 79); opacity: 1; font-weight: normal; white-space: pre;">Method</text></g><g class="g-ytitle"><text class="ytitle" transform="rotate(-90,42,260)" x="42" y="260" text-anchor="middle" style="font-family: Arial; font-size: 14px; fill: rgb(16, 56, 79); opacity: 1; font-weight: normal; white-space: pre;">Metric</text></g></g></svg>